<?xml version="1.0" encoding="utf-8"?>
<!-- Generator: Adobe Illustrator 24.1.1, SVG Export Plug-In . SVG Version: 6.00 Build 0)  -->
<svg version="1.1" id="Layer_1" xmlns="http://www.w3.org/2000/svg" xmlns:xlink="http://www.w3.org/1999/xlink" x="0px" y="0px"
	 viewBox="0 0 512 512" style="enable-background:new 0 0 512 512;" xml:space="preserve">
<style type="text/css">
	.st0{fill-rule:evenodd;clip-rule:evenodd;fill:#555555;}
</style>
<g>
	<path class="st0" d="M38.4,0L78,460.8L255.7,512L434,460.8L473.6,0L38.4,0L38.4,0z M391,109.4l-2.5,28.6l-1.1,12.7h-0.2H256h-0.2
		h-76.9l5,57.9h71.9h0.2h111.8h14.7l-1.3,15.2l-12.8,148.8l-0.8,9.5L256,414.2l-0.3,0.1l-111.6-32.1l-7.6-88.8h25.2h29.5l3.9,45.1
		l60.7,17l0.1,0v0l60.8-17l6.3-73.3H256h-0.2H134.1l-13.4-155.7l-1.3-15.2h136.4h0.2h136.3L391,109.4z"/>
</g>
</svg>
