<?xml version="1.0" encoding="utf-8"?>
<!-- Generator: Adobe Illustrator 24.1.1, SVG Export Plug-In . SVG Version: 6.00 Build 0)  -->
<svg version="1.1" id="Layer_1" xmlns="http://www.w3.org/2000/svg" xmlns:xlink="http://www.w3.org/1999/xlink" x="0px" y="0px"
	 viewBox="0 0 512 512" style="enable-background:new 0 0 512 512;" xml:space="preserve">
<style type="text/css">
	.st0{fill:#444444;}
</style>
<g>
	<path class="st0" d="M30.3,0l41.1,460.8L255.7,512l184.9-51.2L481.7,0L30.3,0L30.3,0z M200.6,119.3l-8.2,88.7l193.1,0l-1.4,15.2
		L370.9,372l-0.8,9.5l-115.9,32.1l-115.8-32.1l-7.9-88.7h56.7l4,45.1l63,17l63-17l6.6-73.3l-193.1,0l1.4-15.2l13.3-148.8l4.2-41.7
		H375l2.6,31.9l8.1,88.9h-56.7l-5.2-58.4l-57.7-3.5h-10.3v-0.1L200.6,119.3L200.6,119.3z"/>
</g>
</svg>
