<?xml version="1.0" encoding="utf-8"?>
<!-- Generator: Adobe Illustrator 24.1.1, SVG Export Plug-In . SVG Version: 6.00 Build 0)  -->
<svg version="1.1" id="Layer_1" xmlns="http://www.w3.org/2000/svg" xmlns:xlink="http://www.w3.org/1999/xlink" x="0px" y="0px"
	 viewBox="0 0 512 512" style="enable-background:new 0 0 512 512;" xml:space="preserve">
<g>
	<path d="M0,0h512v512H0V0z M470.1,389.9c-3.7-23.4-19-43-64.1-61.3c-15.7-7.3-33.2-12.5-38.3-24.3c-1.9-7-2.3-10.8-1-15
		c3.3-13.8,19.5-17.9,32.3-14.1c8.3,2.6,16,8.9,20.8,19.2c22.1-14.4,22.1-14.4,37.4-24c-5.7-8.9-8.6-12.8-12.5-16.6
		c-13.4-15.1-31.3-22.8-60.4-22.1l-15.1,1.9c-14.4,3.5-28.2,11.2-36.5,21.4c-24.3,27.5-17.2,75.5,12.2,95.4
		c29.1,21.8,71.7,26.5,77.2,47c5.1,25-18.6,33-42,30.1c-17.3-3.8-26.8-12.5-37.4-28.5l-39,22.4c4.4,10.3,9.6,14.7,17.3,23.7
		c37.1,37.4,129.9,35.5,146.6-21.4c0.6-1.9,5.1-15.1,1.6-35.2L470.1,389.9z M278.4,235.3h-47.9c0,41.3-0.3,82.4-0.3,123.8
		c0,26.3,1.3,50.4-2.9,57.8c-7.1,14.7-25.2,12.8-33.4,10.3c-8.4-4.2-12.8-9.9-17.7-18.3c-1.4-2.3-2.4-4.2-2.8-4.2l-38.9,24
		c6.5,13.4,16,25,28.3,32.3c18.3,10.9,42.8,14.4,68.4,8.7c16.7-4.8,31.1-14.8,38.6-30.1c10.9-19.8,8.6-44.2,8.5-71.4
		c0.3-43.8,0-87.7,0-131.8L278.4,235.3z"/>
</g>
</svg>
